<svg id="Layer_1" data-name="Layer 1" xmlns="http://www.w3.org/2000/svg" xmlns:xlink="http://www.w3.org/1999/xlink" viewBox="0 0 1000 1000"><defs><linearGradient id="linear-gradient" x1="724.36" y1="738.89" x2="161.45" y2="72.97" gradientUnits="userSpaceOnUse"><stop offset="0" stop-color="#4632d6"/><stop offset="1" stop-color="#a17bf1"/></linearGradient><linearGradient id="linear-gradient-2" x1="292.5" y1="122.36" x2="1038.66" y2="742.76" xlink:href="#linear-gradient"/><linearGradient id="linear-gradient-3" x1="-73.01" y1="717.28" x2="1308.46" y2="1136.43" xlink:href="#linear-gradient"/><linearGradient id="linear-gradient-4" x1="-58.89" y1="670.73" x2="1322.58" y2="1089.89" xlink:href="#linear-gradient"/><linearGradient id="linear-gradient-5" x1="-48.91" y1="637.85" x2="1332.56" y2="1057" xlink:href="#linear-gradient"/><linearGradient id="linear-gradient-6" x1="-37.7" y1="600.9" x2="1343.77" y2="1020.06" xlink:href="#linear-gradient"/><linearGradient id="linear-gradient-7" x1="-30.49" y1="577.13" x2="1350.98" y2="996.29" xlink:href="#linear-gradient"/><linearGradient id="linear-gradient-8" x1="-20.49" y1="544.16" x2="1360.99" y2="963.32" xlink:href="#linear-gradient"/><linearGradient id="linear-gradient-9" x1="-18.71" y1="538.29" x2="1362.77" y2="957.44" xlink:href="#linear-gradient"/><linearGradient id="linear-gradient-10" x1="-6.59" y1="498.35" x2="1374.89" y2="917.5" xlink:href="#linear-gradient"/></defs><polygon class="cls-1" points="664.35 473.49 664.35 473.5 652.94 480.09 652.88 480.12 652.94 480.09 500 568.38 335.65 473.5 335.65 473.48 278.41 440.4 278.41 506.55 500 634.48 721.59 506.55 721.59 440.4 664.35 473.49"/><polygon class="cls-2" points="335.65 289.04 500 399.94 664.35 289.04 664.35 441.49 721.59 408.4 721.59 181.36 500 330.88 278.41 181.36 278.41 408.41 335.65 441.49 335.65 289.04"/><path class="cls-3" d="M152.51,725.73q17.2,0,27.08,10.31t9.86,28.25v51.84H169.37V765.91q0-10.59-4.76-16.32t-13.72-5.74q-9.87,0-16,6.36T128.83,767v49.15H108.74V765.91q0-10.59-4.84-16.32t-13.81-5.74q-9.87,0-16,6.36T68,767v49.15H47.94v-88.6H65.88l.18,10.4q9.5-12.2,26.18-12.2a35,35,0,0,1,17,4.13,28.94,28.94,0,0,1,11.75,11.48Q131.51,725.72,152.51,725.73Z"/><path class="cls-4" d="M288.64,727.53h17.93v88.6H288.64l-.18-11.84q-10.95,13.82-32.29,13.81-19.55,0-31.74-12.91t-12.2-33.36q0-20.45,12.2-33.36t31.74-12.92q21.34,0,32.29,13.81ZM239.85,792q7.53,7.8,19.55,7.81T279,792q7.53-7.8,7.53-20.17T279,751.65q-7.53-7.8-19.55-7.8t-19.55,7.8q-7.53,7.8-7.53,20.18T239.85,792Z"/><path class="cls-5" d="M407,727.53h17.93v88.6H407l-.18-11.84q-10.95,13.82-32.29,13.81-19.55,0-31.74-12.91t-12.2-33.36q0-20.45,12.2-33.36t31.74-12.92q21.34,0,32.29,13.81ZM358.22,792q7.53,7.8,19.55,7.81T397.32,792q7.53-7.8,7.54-20.17t-7.54-20.18q-7.53-7.8-19.55-7.8t-19.55,7.8q-7.53,7.8-7.53,20.18T358.22,792Z"/><path class="cls-6" d="M536.5,816.13H510.31L474.8,777v39.1H454.71V690.58H474.8v74.25l31.75-37.3h24.57L494,770Z"/><path class="cls-7" d="M619.18,727.53H640.7l-37.48,88.6H581.69L544,727.53h21.88l12.38,30.31,14.17,37.48,14.34-37.48Z"/><path class="cls-8" d="M671,714.25a12.56,12.56,0,0,1-9.15-3.49,11.67,11.67,0,0,1-3.58-8.7,12.09,12.09,0,0,1,3.58-9.06,12.57,12.57,0,0,1,9.15-3.5,13.12,13.12,0,0,1,9.42,3.5,11.94,11.94,0,0,1,3.67,9.06,11.53,11.53,0,0,1-3.67,8.7A13.11,13.11,0,0,1,671,714.25ZM661,816.13v-88.6h20.09v88.6Z"/><path class="cls-9" d="M751.18,725.73q23.31,0,35.51,14.35t10,39.28H725.89a22.19,22.19,0,0,0,8.79,15.42q7.53,5.75,19.19,5.74A42.54,42.54,0,0,0,768.4,798a27.85,27.85,0,0,0,10.94-6.63l12.2,11.83a46.14,46.14,0,0,1-16.77,11.3,56.33,56.33,0,0,1-21.44,4.13q-21.89,0-35-12.74t-13.09-34.07q0-20.62,12.64-33.36T751.18,725.73Zm.54,17.4q-10.41,0-17,5.38t-8.61,15.25h51.48a21.67,21.67,0,0,0-8-15.07Q762.66,743.14,751.72,743.13Z"/><path class="cls-10" d="M930.72,727.53h21.34l-29.42,88.6H901.3l-8.43-25.29-12.73-35.51L867.4,790.84,859,816.13H837.45l-29.59-88.6H829.2l10,32.64,9.51,33,22.78-65.64h17l22.59,66L921,760.17Z"/></svg>