<svg viewBox="0 0 1000 198.78" xmlns="http://www.w3.org/2000/svg"><g fill="#fff"><path d="m145.46 118.33-3.3 1.91-.02.01.02-.01-44.2 25.51-47.5-27.42-16.54-9.56v19.11l64.04 36.98 64.04-36.98v-19.11z"/><path d="m50.46 65.03 47.5 32.04 47.5-32.04v44.05l16.54-9.56v-65.61l-64.04 43.21-64.04-43.21v65.61l16.54 9.56z"/><path d="m290 61.17q14.56 0 22.9 8.72t8.34 23.89v43.83h-17v-42.46q0-9-4-13.8t-11.6-4.86q-8.36 0-13.5 5.39t-5.14 14.18v41.55h-17v-42.46q0-9-4.1-13.8t-11.68-4.86q-8.34 0-13.49 5.39t-5.16 14.18v41.55h-17v-74.92h15.17l.15 8.8q8-10.32 22.14-10.32a29.72 29.72 0 0 1 14.34 3.49 24.57 24.57 0 0 1 9.93 9.71q8.95-13.2 26.7-13.2z"/><path d="m405.11 62.69h15.16v74.92h-15.16l-.15-10q-9.25 11.68-27.3 11.68-16.53 0-26.84-10.92t-10.32-28.22q0-17.3 10.32-28.21t26.84-10.94q18 0 27.3 11.68zm-41.25 54.52q6.36 6.6 16.53 6.6t16.53-6.6q6.38-6.6 6.37-17.06t-6.37-17.06q-6.37-6.6-16.53-6.6t-16.53 6.6q-6.37 6.6-6.37 17.06t6.37 17.06z"/><path d="m505.2 62.69h15.17v74.92h-15.17l-.15-10q-9.26 11.68-27.3 11.68-16.53 0-26.84-10.92t-10.31-28.22q0-17.3 10.31-28.21t26.84-10.94q18 0 27.3 11.68zm-41.2 54.52q6.38 6.6 16.53 6.6t16.53-6.6q6.38-6.6 6.37-17.06t-6.43-17.06q-6.36-6.6-16.53-6.6t-16.47 6.6q-6.37 6.6-6.37 17.06t6.37 17.06z"/><path d="m614.7 137.61h-22.15l-30-33.06v33.06h-17v-106.16h17v62.79l26.84-31.55h20.78l-31.4 35.94z"/><path d="m684.61 62.69h18.2l-31.7 74.92h-18.2l-31.85-74.92h18.51l10.43 25.63 12 31.68 12.13-31.7z"/><path d="m728.44 51.47a10.63 10.63 0 0 1 -7.74-3 9.85 9.85 0 0 1 -3-7.35 10.22 10.22 0 0 1 3-7.66 10.63 10.63 0 0 1 7.74-3 11.09 11.09 0 0 1 8 3 10.1 10.1 0 0 1 3.11 7.66 9.74 9.74 0 0 1 -3.11 7.35 11.09 11.09 0 0 1 -8 3zm-8.5 86.14v-74.92h17v74.92z"/><path d="m796.23 61.17q19.71 0 30 12.14t8.49 33.21h-59.88a18.78 18.78 0 0 0 7.43 13q6.38 4.86 16.23 4.86a36 36 0 0 0 12.29-2.13 23.52 23.52 0 0 0 9.25-5.61l10.31 10a39 39 0 0 1 -14.18 9.56 47.68 47.68 0 0 1 -18.12 3.48q-18.51 0-29.58-10.76t-11.07-28.77q0-17.45 10.69-28.21t28.14-10.77zm.45 14.72q-8.79 0-14.41 4.54t-7.27 12.9h43.53a18.31 18.31 0 0 0 -6.75-12.74q-5.84-4.71-15.1-4.7z"/><path d="m948 62.69h18l-24.87 74.92h-17.97l-7.16-21.38-10.77-30-10.77 30-7.13 21.38h-18.2l-25-74.92h18.07l8.49 27.6 8 27.91 19.31-55.51h14.4l19.1 55.81 8.35-28.21z"/></g></svg>