<svg id="Layer_1" data-name="Layer 1" xmlns="http://www.w3.org/2000/svg" xmlns:xlink="http://www.w3.org/1999/xlink" viewBox="0 0 1000 198.78"><defs><linearGradient id="linear-gradient" x1="162.8" y1="195.03" x2="0.12" y2="2.58" gradientUnits="userSpaceOnUse"><stop offset="0" stop-color="#4632d6"/><stop offset="1" stop-color="#a17bf1"/></linearGradient><linearGradient id="linear-gradient-2" x1="37.99" y1="16.85" x2="253.63" y2="196.15" xlink:href="#linear-gradient"/><linearGradient id="linear-gradient-3" x1="99.31" y1="54.03" x2="1267.45" y2="408.45" xlink:href="#linear-gradient"/><linearGradient id="linear-gradient-4" x1="111.25" y1="14.67" x2="1279.39" y2="369.1" xlink:href="#linear-gradient"/><linearGradient id="linear-gradient-5" x1="119.69" y1="-13.14" x2="1287.83" y2="341.29" xlink:href="#linear-gradient"/><linearGradient id="linear-gradient-6" x1="129.16" y1="-44.38" x2="1297.31" y2="310.05" xlink:href="#linear-gradient"/><linearGradient id="linear-gradient-7" x1="135.26" y1="-64.48" x2="1303.41" y2="289.95" xlink:href="#linear-gradient"/><linearGradient id="linear-gradient-8" x1="143.72" y1="-92.36" x2="1311.86" y2="262.07" xlink:href="#linear-gradient"/><linearGradient id="linear-gradient-9" x1="145.23" y1="-97.33" x2="1313.37" y2="257.1" xlink:href="#linear-gradient"/><linearGradient id="linear-gradient-10" x1="155.48" y1="-131.1" x2="1323.62" y2="223.33" xlink:href="#linear-gradient"/></defs><polygon class="cls-1" points="145.46 118.33 145.46 118.33 142.16 120.24 142.14 120.25 142.16 120.24 97.96 145.75 50.46 118.33 50.46 118.33 33.92 108.77 33.92 127.88 97.96 164.86 162 127.88 162 108.77 145.46 118.33"/><polygon class="cls-2" points="50.46 65.03 97.96 97.07 145.46 65.03 145.46 109.08 162 99.52 162 33.91 97.96 77.12 33.92 33.91 33.92 99.52 50.46 109.08 50.46 65.03"/><path class="cls-3" d="M290,61.17q14.56,0,22.9,8.72t8.34,23.89v43.83h-17V95.15q0-9-4-13.8t-11.6-4.86q-8.36,0-13.5,5.39T270,96.06v41.55H253V95.15q0-9-4.1-13.8t-11.68-4.86q-8.34,0-13.49,5.39t-5.16,14.18v41.55h-17V62.69h15.17l.15,8.8q8-10.32,22.14-10.32a29.72,29.72,0,0,1,14.34,3.49,24.57,24.57,0,0,1,9.93,9.71Q272.25,61.17,290,61.17Z"/><path class="cls-4" d="M405.11,62.69h15.16v74.92H405.11l-.15-10q-9.25,11.68-27.3,11.68-16.53,0-26.84-10.92T340.5,100.15q0-17.3,10.32-28.21T377.66,61q18,0,27.3,11.68Zm-41.25,54.52q6.36,6.6,16.53,6.6t16.53-6.6q6.38-6.6,6.37-17.06t-6.37-17.06q-6.37-6.6-16.53-6.6t-16.53,6.6q-6.37,6.6-6.37,17.06T363.86,117.21Z"/><path class="cls-5" d="M505.2,62.69h15.17v74.92H505.2l-.15-10q-9.26,11.68-27.3,11.68-16.53,0-26.84-10.92T440.6,100.15q0-17.3,10.31-28.21T477.75,61q18,0,27.3,11.68ZM464,117.21q6.38,6.6,16.53,6.6t16.53-6.6q6.38-6.6,6.37-17.06T497,83.09q-6.36-6.6-16.53-6.6T464,83.09q-6.37,6.6-6.37,17.06T464,117.21Z"/><path class="cls-6" d="M614.7,137.61H592.55l-30-33.06v33.06h-17V31.45h17V94.24l26.84-31.55h20.78l-31.4,35.94Z"/><path class="cls-7" d="M684.61,62.69h18.2l-31.7,74.92h-18.2L621.06,62.69h18.51L650,88.32,662,120l12.13-31.7Z"/><path class="cls-8" d="M728.44,51.47a10.63,10.63,0,0,1-7.74-3,9.85,9.85,0,0,1-3-7.35,10.22,10.22,0,0,1,3-7.66,10.63,10.63,0,0,1,7.74-3,11.09,11.09,0,0,1,8,3,10.1,10.1,0,0,1,3.11,7.66,9.74,9.74,0,0,1-3.11,7.35A11.09,11.09,0,0,1,728.44,51.47Zm-8.5,86.14V62.69h17v74.92Z"/><path class="cls-9" d="M796.23,61.17q19.71,0,30,12.14t8.49,33.21H774.84a18.78,18.78,0,0,0,7.43,13q6.38,4.86,16.23,4.86a36,36,0,0,0,12.29-2.13,23.52,23.52,0,0,0,9.25-5.61l10.31,10a39,39,0,0,1-14.18,9.56,47.68,47.68,0,0,1-18.12,3.48q-18.51,0-29.58-10.76T757.4,100.15q0-17.45,10.69-28.21T796.23,61.17Zm.45,14.72q-8.79,0-14.41,4.54T775,93.33h43.53a18.31,18.31,0,0,0-6.75-12.74Q805.94,75.88,796.68,75.89Z"/><path class="cls-10" d="M948,62.69h18l-24.87,74.92H923.16L916,116.23l-10.77-30-10.77,30-7.13,21.38h-18.2l-25-74.92H862.2l8.49,27.6,8,27.91L898,62.69H912.4l19.1,55.81,8.35-28.21Z"/></svg>